<svg xmlns="http://www.w3.org/2000/svg" viewBox="0 0 1280 100" width="1280" height="100">
  <defs>
    <linearGradient id="bg" x1="0%" y1="0%" x2="100%" y2="0%"><stop offset="0%" style="stop-color:#0d3d1a"/><stop offset="50%" style="stop-color:#1b5e2b"/><stop offset="100%" style="stop-color:#0d3d1a"/></linearGradient>
    <clipPath id="c"><rect width="1280" height="100"/></clipPath>
  </defs>
  <g clip-path="url(#c)">
    <rect width="1280" height="100" fill="url(#bg)"/>
    <ellipse cx="640" cy="180" rx="700" ry="150" fill="none" stroke="#2e7d3220" stroke-width="2"/>
    <rect x="28" y="24" width="60" height="24" rx="3" fill="#1877F2" opacity="0.9"/>
    <text x="58" y="40" text-anchor="middle" font-family="Arial" font-size="12" font-weight="700" fill="#fff">FIFA 26</text>
    <line x1="100" y1="20" x2="100" y2="80" stroke="#ffffff20" stroke-width="1"/>
    <text x="118" y="42" font-family="Arial" font-size="12" font-weight="700" fill="#f5c518">BUCHANAN'S</text>
    <line x1="238" y1="20" x2="238" y2="80" stroke="#ffffff18" stroke-width="1"/>
    <text x="258" y="38" font-family="Arial Black, Arial" font-size="14" font-weight="900" fill="#ffffff">MANTÉN EL SABOR ENCENDIDO CON</text>
    <text x="258" y="70" font-family="Arial Black, Arial" font-size="32" font-weight="900" fill="#f5c518" letter-spacing="-1">20% OFF</text>
    <text x="258" y="88" font-family="Arial Black, Arial" font-size="11" font-weight="700" fill="#ffffff">EN BUCHANAN'S DELUXE 750 ML</text>
    <line x1="640" y1="20" x2="640" y2="80" stroke="#ffffff18" stroke-width="1"/>
    <text x="660" y="38" font-family="Arial" font-size="11" fill="#ffffff90" letter-spacing="1">PROMOTOR OFICIAL DE LA COPA MUNDIAL DE LA FIFA 2026™</text>
    <rect x="660" y="50" width="280" height="24" rx="4" fill="#f5c518" opacity="0.12"/>
    <text x="800" y="67" text-anchor="middle" font-family="Arial Black" font-size="13" font-weight="900" fill="#f5c518">COPA MUNDIAL DE LA FIFA 2026™</text>
    <line x1="1040" y1="20" x2="1040" y2="80" stroke="#ffffff18" stroke-width="1"/>
    <text x="1060" y="40" font-family="Arial" font-size="10" fill="#ffffff80" letter-spacing="0.5">DIAGEO</text>
    <rect x="1060" y="48" width="36" height="16" rx="3" fill="#f5c518"/>
    <text x="1078" y="59" text-anchor="middle" font-family="Arial" font-size="8" font-weight="700" fill="#0d3d1a">+18</text>
    <rect x="1108" y="48" width="36" height="16" rx="3" fill="#ffffff18"/>
    <text x="1126" y="59" text-anchor="middle" font-family="Arial" font-size="7" fill="#fff">RESP.</text>
    <rect x="0" y="84" width="1280" height="16" fill="#000" opacity="0.35"/>
    <text x="640" y="94" text-anchor="middle" font-family="Arial" font-size="6.5" fill="#ffffff70">Diageo te invita a disfrutar con responsabilidad. El exceso de alcohol es perjudicial para la salud. Prohibida la venta de bebidas embriagantes a menores de edad. Válido del 18 al 19 de julio del 2026.</text>
  </g>
</svg>
